<?xml version="1.0" encoding="UTF-8" standalone="no"?>
<svg
   width="2512.0625"
   zoomAndPan="magnify"
   viewBox="0 0 1884.0469 386.31811"
   height="515.09082"
   preserveAspectRatio="xMidYMid"
   version="1.0"
   id="svg476"
   xmlns="http://www.w3.org/2000/svg"
   xmlns:svg="http://www.w3.org/2000/svg">
  <defs
     id="defs262">
    <clipPath
       id="7049115ae9">
      <path
         d="M 30.851562,179.83594 H 344.86328 v 4.49218 H 30.851562 Z m 0,0"
         clip-rule="nonzero"
         id="path259" />
    </clipPath>
  </defs>
  <g
     clip-path="url(#7049115ae9)"
     id="g266"
     transform="matrix(6,0,0,6,-185.10937,-936.27171)">
    <path
       fill="#792e6d"
       d="M 30.851562,179.83594 H 344.85937 v 4.49218 H 30.851562 Z m 0,0"
       fill-opacity="1"
       fill-rule="nonzero"
       id="path264" />
  </g>
  <g
     fill="#000000"
     fill-opacity="1"
     id="g274"
     transform="matrix(6,0,0,6,-185.10937,-936.27171)">
    <g
       transform="translate(60.137914,183.27966)"
       id="g272">
      <g
         id="g270">
        <path
           d="M 21.09375,-20.3125 H 27.4375 L 23.09375,0 H 16.203125 L 13.71875,-11.96875 11.203125,0 H 4.3125 L 0.203125,-20.3125 h 6.4375 l 1.5,12.8125 2.65625,-12.8125 h 6.0625 l 2.359375,12.734375 z m 0,0"
           id="path268"
           style="fill:#bb86fc;fill-opacity:1" />
      </g>
    </g>
  </g>
  <g
     fill="#000000"
     fill-opacity="1"
     id="g282"
     transform="matrix(6,0,0,6,-185.10937,-936.27171)">
    <g
       transform="translate(100.00471,183.27966)"
       id="g280">
      <g
         id="g278">
        <path
           d="m 7.203125,-20.3125 h 4.96875 c 3.988281,0 5.984375,1.683594 5.984375,5.046875 v 6.921875 h -10.375 v 2.6875 c 0,0.59375 0.335938,0.890625 1.015625,0.890625 h 1.796875 c 0.675781,0 1.015625,-0.320313 1.015625,-0.96875 V -6.875 h 6.546875 v 1.828125 C 18.15625,-1.679688 16.160156,0 12.171875,0 H 7.203125 C 3.210938,0 1.21875,-1.679688 1.21875,-5.046875 v -10.21875 c 0,-3.363281 1.992188,-5.046875 5.984375,-5.046875 z m 0.578125,8.21875 h 3.828125 v -2.5625 c 0,-0.59375 -0.339844,-0.890625 -1.015625,-0.890625 H 8.796875 c -0.679687,0 -1.015625,0.296875 -1.015625,0.890625 z m 0,0"
           id="path276"
           style="fill:#bb86fc;fill-opacity:1" />
      </g>
    </g>
  </g>
  <g
     fill="#000000"
     fill-opacity="1"
     id="g290"
     transform="matrix(6,0,0,6,-185.10937,-936.27171)">
    <g
       transform="translate(131.40207,183.27966)"
       id="g288">
      <g
         id="g286">
        <path
           d="m 12.140625,-20.3125 h 0.71875 c 3.613281,0 5.421875,1.683594 5.421875,5.046875 v 10.21875 C 18.28125,-1.679688 16.472656,0 12.859375,0 h -0.71875 C 10.046875,0 8.804688,-0.867188 8.421875,-2.609375 V 0 H 1.625 V -27.234375 H 8.546875 V -18.125 c 0.519531,-1.457031 1.71875,-2.1875 3.59375,-2.1875 z m -0.78125,14.328125 v -8.34375 c 0,-0.601563 -0.339844,-0.90625 -1.015625,-0.90625 h -0.6875 c -0.742188,0 -1.109375,0.414063 -1.109375,1.234375 v 7.6875 c 0,0.8125 0.367187,1.21875 1.109375,1.21875 h 0.6875 c 0.675781,0 1.015625,-0.296875 1.015625,-0.890625 z m 0,0"
           id="path284"
           style="fill:#bb86fc;fill-opacity:1" />
      </g>
    </g>
  </g>
  <g
     fill="#000000"
     fill-opacity="1"
     id="g298"
     transform="matrix(6,0,0,6,-185.10937,-936.27171)">
    <g
       transform="translate(163.12517,183.27966)"
       id="g296">
      <g
         id="g294">
        <path
           d="m 12.140625,-20.3125 h 0.71875 c 3.613281,0 5.421875,1.683594 5.421875,5.046875 v 10.21875 C 18.28125,-1.679688 16.472656,0 12.859375,0 h -0.71875 C 10.046875,0 8.804688,-0.867188 8.421875,-2.609375 V 0 H 1.625 V -27.234375 H 8.546875 V -18.125 c 0.519531,-1.457031 1.71875,-2.1875 3.59375,-2.1875 z m -0.78125,14.328125 v -8.34375 c 0,-0.601563 -0.339844,-0.90625 -1.015625,-0.90625 h -0.6875 c -0.742188,0 -1.109375,0.414063 -1.109375,1.234375 v 7.6875 c 0,0.8125 0.367187,1.21875 1.109375,1.21875 h 0.6875 c 0.675781,0 1.015625,-0.296875 1.015625,-0.890625 z m 0,0"
           id="path292"
           style="fill:#bb86fc;fill-opacity:1" />
      </g>
    </g>
  </g>
  <g
     fill="#000000"
     fill-opacity="1"
     id="g306"
     transform="matrix(6,0,0,6,-185.10937,-936.27171)">
    <g
       transform="translate(194.84828,183.27966)"
       id="g304">
      <g
         id="g302">
        <path
           d="m 1.5,-22.359375 v -4.875 h 7.171875 v 4.875 z M 8.546875,0 H 1.625 v -20.3125 h 6.921875 z m 0,0"
           id="path300"
           style="fill:#bb86fc;fill-opacity:1" />
      </g>
    </g>
  </g>
  <g
     fill="#000000"
     fill-opacity="1"
     id="g314"
     transform="matrix(6,0,0,6,-185.10937,-936.27171)">
    <g
       transform="translate(217.24686,183.27966)"
       id="g312">
      <g
         id="g310">
        <path
           d="m 12.578125,-22.359375 h -2.15625 c -0.679687,0 -1.015625,0.304687 -1.015625,0.90625 v 1.140625 h 3.171875 v 5.078125 H 9.40625 V 0 H 2.484375 V -15.234375 H 0.40625 V -20.3125 h 2.078125 v -1.875 c 0,-3.363281 1.992187,-5.046875 5.984375,-5.046875 h 4.109375 z m 0,0"
           id="path308"
           style="fill:#bb86fc;fill-opacity:1" />
      </g>
    </g>
  </g>
  <g
     fill="#000000"
     fill-opacity="1"
     id="g322"
     transform="matrix(6,0,0,6,-185.10937,-936.27171)">
    <g
       transform="translate(242.25143,183.27966)"
       id="g320">
      <g
         id="g318">
        <path
           d="m 1.5,-22.359375 v -4.875 h 7.171875 v 4.875 z M 8.546875,0 H 1.625 v -20.3125 h 6.921875 z m 0,0"
           id="path316"
           style="fill:#bb86fc;fill-opacity:1" />
      </g>
    </g>
  </g>
  <g
     fill="#000000"
     fill-opacity="1"
     id="g330"
     transform="matrix(6,0,0,6,-185.10937,-936.27171)">
    <g
       transform="translate(264.65001,183.27966)"
       id="g328">
      <g
         id="g326">
        <path
           d="m 7.203125,-20.3125 h 4.96875 c 3.988281,0 5.984375,1.683594 5.984375,5.046875 v 6.921875 h -10.375 v 2.6875 c 0,0.59375 0.335938,0.890625 1.015625,0.890625 h 1.796875 c 0.675781,0 1.015625,-0.320313 1.015625,-0.96875 V -6.875 h 6.546875 v 1.828125 C 18.15625,-1.679688 16.160156,0 12.171875,0 H 7.203125 C 3.210938,0 1.21875,-1.679688 1.21875,-5.046875 v -10.21875 c 0,-3.363281 1.992188,-5.046875 5.984375,-5.046875 z m 0.578125,8.21875 h 3.828125 v -2.5625 c 0,-0.59375 -0.339844,-0.890625 -1.015625,-0.890625 H 8.796875 c -0.679687,0 -1.015625,0.296875 -1.015625,0.890625 z m 0,0"
           id="path324"
           style="fill:#bb86fc;fill-opacity:1" />
      </g>
    </g>
  </g>
  <g
     fill="#000000"
     fill-opacity="1"
     id="g338"
     transform="matrix(6,0,0,6,-185.10937,-936.27171)">
    <g
       transform="translate(296.04736,183.27966)"
       id="g336">
      <g
         id="g334">
        <path
           d="M 10.953125,-27.234375 H 17.875 V 0 H 11.078125 V -2.609375 C 10.691406,-0.867188 9.457031,0 7.375,0 H 6.640625 C 3.023438,0 1.21875,-1.679688 1.21875,-5.046875 v -10.21875 c 0,-3.363281 1.804688,-5.046875 5.421875,-5.046875 H 7.375 c 1.875,0 3.066406,0.730469 3.578125,2.1875 z M 9.15625,-5.09375 h 0.703125 c 0.726563,0 1.09375,-0.40625 1.09375,-1.21875 V -14 c 0,-0.820312 -0.367187,-1.234375 -1.09375,-1.234375 H 9.15625 c -0.679688,0 -1.015625,0.304687 -1.015625,0.90625 v 8.34375 c 0,0.59375 0.335937,0.890625 1.015625,0.890625 z m 0,0"
           id="path332"
           style="fill:#bb86fc;fill-opacity:1" />
      </g>
    </g>
  </g>
  <g
     fill="#373737"
     fill-opacity="1"
     id="g346"
     transform="matrix(6,0,0,6,-185.10937,-936.27171)">
    <g
       transform="translate(83.881473,197.97749)"
       id="g344">
      <g
         id="g342">
        <path
           d="m 1,0 v -11.859375 h 4.21875 c 0.851562,0 1.609375,0.15625 2.265625,0.46875 0.65625,0.3125 1.203125,0.742187 1.640625,1.28125 0.445312,0.53125 0.785156,1.164063 1.015625,1.890625 0.226563,0.71875 0.34375,1.484375 0.34375,2.296875 0,0.824219 -0.121094,1.59375 -0.359375,2.3125 -0.242188,0.71875 -0.574219,1.351563 -1,1.890625 -0.417969,0.53125 -0.917969,0.953125 -1.5,1.265625 C 7.039062,-0.148438 6.414062,0 5.75,0 Z m 4.15625,-1.625 c 0.632812,0 1.171875,-0.113281 1.609375,-0.34375 C 7.210938,-2.207031 7.582031,-2.519531 7.875,-2.90625 8.164062,-3.300781 8.375,-3.757812 8.5,-4.28125 8.632812,-4.800781 8.703125,-5.347656 8.703125,-5.921875 8.703125,-6.484375 8.632812,-7.03125 8.5,-7.5625 8.375,-8.09375 8.164062,-8.554688 7.875,-8.953125 7.59375,-9.359375 7.226562,-9.679688 6.78125,-9.921875 6.332031,-10.160156 5.789062,-10.28125 5.15625,-10.28125 H 2.765625 V -1.625 Z m 0,0"
           id="path340"
           style="fill:#b8adb6;fill-opacity:1" />
      </g>
    </g>
  </g>
  <g
     fill="#373737"
     fill-opacity="1"
     id="g354"
     transform="matrix(6,0,0,6,-185.10937,-936.27171)">
    <g
       transform="translate(104.31997,197.97749)"
       id="g352">
      <g
         id="g350">
        <path
           d="m 8.171875,-11.859375 v 1.578125 h -5.5 v 3.21875 h 4.90625 v 1.625 h -4.90625 v 3.8125 h 5.5 V 0 H 0.9375 v -11.859375 z m 0,0"
           id="path348"
           style="fill:#b8adb6;fill-opacity:1" />
      </g>
    </g>
  </g>
  <g
     fill="#373737"
     fill-opacity="1"
     id="g362"
     transform="matrix(6,0,0,6,-185.10937,-936.27171)">
    <g
       transform="translate(122.60264,197.97749)"
       id="g360">
      <g
         id="g358">
        <path
           d="M 5.15625,0 0.234375,-11.859375 H 2.125 l 4,9.625 3.984375,-9.625 H 12 L 7.09375,0 Z m 0,0"
           id="path356"
           style="fill:#b8adb6;fill-opacity:1" />
      </g>
    </g>
  </g>
  <g
     fill="#373737"
     fill-opacity="1"
     id="g370"
     transform="matrix(6,0,0,6,-185.10937,-936.27171)">
    <g
       transform="translate(143.94356,197.97749)"
       id="g368">
      <g
         id="g366">
        <path
           d="m 8.171875,-11.859375 v 1.578125 h -5.5 v 3.21875 h 4.90625 v 1.625 h -4.90625 v 3.8125 h 5.5 V 0 H 0.9375 v -11.859375 z m 0,0"
           id="path364"
           style="fill:#b8adb6;fill-opacity:1" />
      </g>
    </g>
  </g>
  <g
     fill="#373737"
     fill-opacity="1"
     id="g378"
     transform="matrix(6,0,0,6,-185.10937,-936.27171)">
    <g
       transform="translate(162.22623,197.97749)"
       id="g376">
      <g
         id="g374">
        <path
           d="m 0.984375,0 v -11.859375 h 1.75 V -1.625 H 8.21875 V 0 Z m 0,0"
           id="path372"
           style="fill:#b8adb6;fill-opacity:1" />
      </g>
    </g>
  </g>
  <g
     fill="#373737"
     fill-opacity="1"
     id="g386"
     transform="matrix(6,0,0,6,-185.10937,-936.27171)">
    <g
       transform="translate(179.90725,197.97749)"
       id="g384">
      <g
         id="g382">
        <path
           d="m 6.4375,-12.015625 c 0.800781,0 1.554688,0.164063 2.265625,0.484375 0.71875,0.324219 1.34375,0.761719 1.875,1.3125 0.53125,0.554688 0.953125,1.199219 1.265625,1.9375 0.3125,0.742188 0.46875,1.523438 0.46875,2.34375 0,0.835938 -0.15625,1.621094 -0.46875,2.359375 -0.3125,0.742187 -0.742188,1.386719 -1.28125,1.9375 -0.53125,0.554687 -1.15625,0.992187 -1.875,1.3125 -0.710938,0.32421875 -1.464844,0.484375 -2.265625,0.484375 -0.804687,0 -1.5625,-0.16015625 -2.28125,-0.484375 C 3.429688,-0.648438 2.8125,-1.085938 2.28125,-1.640625 1.75,-2.191406 1.328125,-2.835938 1.015625,-3.578125 0.710938,-4.316406 0.5625,-5.101562 0.5625,-5.9375 c 0,-0.820312 0.148438,-1.601562 0.453125,-2.34375 0.3125,-0.738281 0.734375,-1.382812 1.265625,-1.9375 0.539062,-0.550781 1.164062,-0.988281 1.875,-1.3125 0.71875,-0.320312 1.476562,-0.484375 2.28125,-0.484375 z m 0,10.515625 c 0.570312,0 1.101562,-0.113281 1.59375,-0.34375 0.5,-0.226562 0.929688,-0.539062 1.296875,-0.9375 0.363281,-0.40625 0.648437,-0.878906 0.859375,-1.421875 0.21875,-0.539063 0.328125,-1.117187 0.328125,-1.734375 0,-0.613281 -0.109375,-1.1875 -0.328125,-1.71875 C 9.976562,-8.1875 9.691406,-8.648438 9.328125,-9.046875 8.960938,-9.453125 8.53125,-9.769531 8.03125,-10 7.539062,-10.226562 7.007812,-10.34375 6.4375,-10.34375 c -0.574219,0 -1.109375,0.117188 -1.609375,0.34375 -0.492187,0.230469 -0.917969,0.546875 -1.28125,0.953125 -0.367187,0.398437 -0.65625,0.859375 -0.875,1.390625 -0.21875,0.53125 -0.328125,1.105469 -0.328125,1.71875 0,0.617188 0.109375,1.195312 0.328125,1.734375 0.21875,0.542969 0.507813,1.015625 0.875,1.421875 0.363281,0.398438 0.789063,0.710938 1.28125,0.9375 0.5,0.230469 1.035156,0.34375 1.609375,0.34375 z m 0,0"
           id="path380"
           style="fill:#b8adb6;fill-opacity:1" />
      </g>
    </g>
  </g>
  <g
     fill="#373737"
     fill-opacity="1"
     id="g394"
     transform="matrix(6,0,0,6,-185.10937,-936.27171)">
    <g
       transform="translate(201.83311,197.97749)"
       id="g392">
      <g
         id="g390">
        <path
           d="m 5.71875,-11.859375 c 0.46875,0 0.90625,0.09375 1.3125,0.28125 0.414062,0.179687 0.773438,0.417969 1.078125,0.71875 0.3125,0.292969 0.554687,0.640625 0.734375,1.046875 0.175781,0.40625 0.265625,0.84375 0.265625,1.3125 0,0.46875 -0.089844,0.914062 -0.265625,1.328125 C 8.664062,-6.753906 8.421875,-6.394531 8.109375,-6.09375 7.804688,-5.800781 7.445312,-5.566406 7.03125,-5.390625 6.625,-5.210938 6.1875,-5.125 5.71875,-5.125 L 2.640625,-5.109375 V 0 H 0.90625 v -11.859375 z m 0,5.109375 c 0.226562,0 0.445312,-0.046875 0.65625,-0.140625 0.207031,-0.09375 0.390625,-0.21875 0.546875,-0.375 0.15625,-0.15625 0.273437,-0.34375 0.359375,-0.5625 C 7.375,-8.046875 7.421875,-8.28125 7.421875,-8.53125 7.421875,-8.769531 7.375,-8.992188 7.28125,-9.203125 7.195312,-9.421875 7.078125,-9.609375 6.921875,-9.765625 6.765625,-9.929688 6.582031,-10.0625 6.375,-10.15625 6.164062,-10.25 5.945312,-10.296875 5.71875,-10.296875 H 2.640625 V -6.75 Z m 0,0"
           id="path388"
           style="fill:#b8adb6;fill-opacity:1" />
      </g>
    </g>
  </g>
  <g
     fill="#373737"
     fill-opacity="1"
     id="g402"
     transform="matrix(6,0,0,6,-185.10937,-936.27171)">
    <g
       transform="translate(220.66728,197.97749)"
       id="g400">
      <g
         id="g398">
        <path
           d="m 11.03125,-11.859375 h 1.765625 V 0 h -1.75 V -9.09375 L 7.59375,-4.328125 H 6.234375 L 2.765625,-9.09375 V 0 H 1 V -11.859375 H 2.765625 L 6.90625,-6.15625 Z m 0,0"
           id="path396"
           style="fill:#b8adb6;fill-opacity:1" />
      </g>
    </g>
  </g>
  <g
     fill="#373737"
     fill-opacity="1"
     id="g410"
     transform="matrix(6,0,0,6,-185.10937,-936.27171)">
    <g
       transform="translate(243.56241,197.97749)"
       id="g408">
      <g
         id="g406">
        <path
           d="m 8.171875,-11.859375 v 1.578125 h -5.5 v 3.21875 h 4.90625 v 1.625 h -4.90625 v 3.8125 h 5.5 V 0 H 0.9375 v -11.859375 z m 0,0"
           id="path404"
           style="fill:#b8adb6;fill-opacity:1" />
      </g>
    </g>
  </g>
  <g
     fill="#373737"
     fill-opacity="1"
     id="g418"
     transform="matrix(6,0,0,6,-185.10937,-936.27171)">
    <g
       transform="translate(261.84507,197.97749)"
       id="g416">
      <g
         id="g414">
        <path
           d="M 11.15625,-11.859375 V 0 H 9.375 L 2.765625,-9.09375 V 0 H 0.9375 v -11.859375 h 1.84375 l 6.609375,9.15625 v -9.15625 z m 0,0"
           id="path412"
           style="fill:#b8adb6;fill-opacity:1" />
      </g>
    </g>
  </g>
  <g
     fill="#373737"
     fill-opacity="1"
     id="g426"
     transform="matrix(6,0,0,6,-185.10937,-936.27171)">
    <g
       transform="translate(283.06901,197.97749)"
       id="g424">
      <g
         id="g422">
        <path
           d="m 3.296875,-10.28125 h -3.21875 v -1.578125 h 8.1875 v 1.578125 H 5.03125 V 0 H 3.296875 Z m 0,0"
           id="path420"
           style="fill:#b8adb6;fill-opacity:1" />
      </g>
    </g>
  </g>
  <g
     fill="#373737"
     fill-opacity="1"
     id="g434"
     transform="matrix(6,0,0,6,-185.10937,-936.27171)">
    <g
       transform="translate(135.21338,220.25976)"
       id="g432">
      <g
         id="g430">
        <path
           d="m 8.84375,-3.328125 c 0,0.5 -0.101562,0.96875 -0.296875,1.40625 -0.199219,0.429687 -0.496094,0.804687 -0.890625,1.125 -0.773438,0.648437 -1.757812,0.96875 -2.953125,0.96875 -0.9375,0 -1.789063,-0.1914062 -2.546875,-0.578125 C 1.394531,-0.789062 0.835938,-1.304688 0.484375,-1.953125 L 1.96875,-2.71875 c 0.226562,0.398438 0.582031,0.703125 1.0625,0.921875 0.488281,0.21875 1.046875,0.328125 1.671875,0.328125 1.613281,0 2.421875,-0.617188 2.421875,-1.859375 C 7.125,-3.554688 7.082031,-3.753906 7,-3.921875 6.914062,-4.097656 6.789062,-4.253906 6.625,-4.390625 6.21875,-4.734375 5.5,-5.035156 4.46875,-5.296875 3.84375,-5.453125 3.3125,-5.625 2.875,-5.8125 2.4375,-6.007812 2.070312,-6.234375 1.78125,-6.484375 1.082031,-7.054688 0.734375,-7.8125 0.734375,-8.75 c 0,-0.46875 0.085937,-0.90625 0.265625,-1.3125 0.1875,-0.40625 0.445312,-0.757812 0.78125,-1.0625 0.351562,-0.289062 0.757812,-0.507812 1.21875,-0.65625 0.457031,-0.15625 0.96875,-0.234375 1.53125,-0.234375 0.8125,0 1.5625,0.15625 2.25,0.46875 0.6875,0.3125 1.207031,0.75 1.5625,1.3125 l -1.359375,0.84375 C 6.660156,-9.785156 6.285156,-10.0625 5.859375,-10.21875 5.441406,-10.382812 5,-10.46875 4.53125,-10.46875 c -0.335938,0 -0.640625,0.05859 -0.921875,0.171875 -0.28125,0.117187 -0.515625,0.25 -0.703125,0.40625 C 2.75,-9.765625 2.632812,-9.601562 2.5625,-9.40625 2.488281,-9.207031 2.453125,-9 2.453125,-8.78125 c 0,0.148438 0.019531,0.296875 0.0625,0.453125 0.050781,0.148437 0.160156,0.304687 0.328125,0.46875 0.164062,0.15625 0.410156,0.3125 0.734375,0.46875 0.320313,0.148437 0.765625,0.292969 1.328125,0.4375 0.664062,0.167969 1.222656,0.351563 1.671875,0.546875 0.457031,0.1875 0.84375,0.417969 1.15625,0.6875 0.738281,0.605469 1.109375,1.402344 1.109375,2.390625 z m 0,0"
           id="path428"
           style="fill:#b8adb6;fill-opacity:1" />
      </g>
    </g>
  </g>
  <g
     fill="#373737"
     fill-opacity="1"
     id="g442"
     transform="matrix(6,0,0,6,-185.10937,-936.27171)">
    <g
       transform="translate(154.01412,220.25976)"
       id="g440">
      <g
         id="g438">
        <path
           d="m 3.296875,-10.28125 h -3.21875 v -1.578125 h 8.1875 v 1.578125 H 5.03125 V 0 H 3.296875 Z m 0,0"
           id="path436"
           style="fill:#b8adb6;fill-opacity:1" />
      </g>
    </g>
  </g>
  <g
     fill="#373737"
     fill-opacity="1"
     id="g450"
     transform="matrix(6,0,0,6,-185.10937,-936.27171)">
    <g
       transform="translate(171.84556,220.25976)"
       id="g448">
      <g
         id="g446">
        <path
           d="m 9.640625,-4.203125 c 0,0.605469 -0.117187,1.171875 -0.34375,1.703125 C 9.078125,-1.96875 8.769531,-1.503906 8.375,-1.109375 7.988281,-0.710938 7.53125,-0.398438 7,-0.171875 6.476562,0.0546875 5.914062,0.171875 5.3125,0.171875 4.707031,0.171875 4.144531,0.0546875 3.625,-0.171875 3.101562,-0.398438 2.644531,-0.710938 2.25,-1.109375 1.863281,-1.503906 1.554688,-1.96875 1.328125,-2.5 1.097656,-3.03125 0.984375,-3.597656 0.984375,-4.203125 v -7.65625 H 2.71875 v 7.65625 c 0,0.367187 0.066406,0.710937 0.203125,1.03125 0.132813,0.324219 0.316406,0.609375 0.546875,0.859375 0.238281,0.25 0.515625,0.449219 0.828125,0.59375 C 4.617188,-1.570312 4.957031,-1.5 5.3125,-1.5 c 0.363281,0 0.695312,-0.070312 1,-0.21875 0.3125,-0.144531 0.582031,-0.34375 0.8125,-0.59375 0.238281,-0.25 0.425781,-0.535156 0.5625,-0.859375 0.132812,-0.320313 0.203125,-0.664063 0.203125,-1.03125 v -7.65625 h 1.75 z m 0,0"
           id="path444"
           style="fill:#b8adb6;fill-opacity:1" />
      </g>
    </g>
  </g>
  <g
     fill="#373737"
     fill-opacity="1"
     id="g458"
     transform="matrix(6,0,0,6,-185.10937,-936.27171)">
    <g
       transform="translate(191.54873,220.25976)"
       id="g456">
      <g
         id="g454">
        <path
           d="m 1,0 v -11.859375 h 4.21875 c 0.851562,0 1.609375,0.15625 2.265625,0.46875 0.65625,0.3125 1.203125,0.742187 1.640625,1.28125 0.445312,0.53125 0.785156,1.164063 1.015625,1.890625 0.226563,0.71875 0.34375,1.484375 0.34375,2.296875 0,0.824219 -0.121094,1.59375 -0.359375,2.3125 -0.242188,0.71875 -0.574219,1.351563 -1,1.890625 -0.417969,0.53125 -0.917969,0.953125 -1.5,1.265625 C 7.039062,-0.148438 6.414062,0 5.75,0 Z m 4.15625,-1.625 c 0.632812,0 1.171875,-0.113281 1.609375,-0.34375 C 7.210938,-2.207031 7.582031,-2.519531 7.875,-2.90625 8.164062,-3.300781 8.375,-3.757812 8.5,-4.28125 8.632812,-4.800781 8.703125,-5.347656 8.703125,-5.921875 8.703125,-6.484375 8.632812,-7.03125 8.5,-7.5625 8.375,-8.09375 8.164062,-8.554688 7.875,-8.953125 7.59375,-9.359375 7.226562,-9.679688 6.78125,-9.921875 6.332031,-10.160156 5.789062,-10.28125 5.15625,-10.28125 H 2.765625 V -1.625 Z m 0,0"
           id="path452"
           style="fill:#b8adb6;fill-opacity:1" />
      </g>
    </g>
  </g>
  <g
     fill="#373737"
     fill-opacity="1"
     id="g466"
     transform="matrix(6,0,0,6,-185.10937,-936.27171)">
    <g
       transform="translate(211.98723,220.25976)"
       id="g464">
      <g
         id="g462">
        <path
           d="M 4.140625,-10.421875 V -1.4375 h 0.875 V 0 h -3.5 V -1.4375 H 2.40625 v -8.984375 H 1.515625 v -1.4375 h 3.5 v 1.4375 z m 0,0"
           id="path460"
           style="fill:#b8adb6;fill-opacity:1" />
      </g>
    </g>
  </g>
  <g
     fill="#373737"
     fill-opacity="1"
     id="g474"
     transform="matrix(6,0,0,6,-185.10937,-936.27171)">
    <g
       transform="translate(227.66285,220.25976)"
       id="g472">
      <g
         id="g470">
        <path
           d="m 6.4375,-12.015625 c 0.800781,0 1.554688,0.164063 2.265625,0.484375 0.71875,0.324219 1.34375,0.761719 1.875,1.3125 0.53125,0.554688 0.953125,1.199219 1.265625,1.9375 0.3125,0.742188 0.46875,1.523438 0.46875,2.34375 0,0.835938 -0.15625,1.621094 -0.46875,2.359375 -0.3125,0.742187 -0.742188,1.386719 -1.28125,1.9375 -0.53125,0.554687 -1.15625,0.992187 -1.875,1.3125 -0.710938,0.32421875 -1.464844,0.484375 -2.265625,0.484375 -0.804687,0 -1.5625,-0.16015625 -2.28125,-0.484375 C 3.429688,-0.648438 2.8125,-1.085938 2.28125,-1.640625 1.75,-2.191406 1.328125,-2.835938 1.015625,-3.578125 0.710938,-4.316406 0.5625,-5.101562 0.5625,-5.9375 c 0,-0.820312 0.148438,-1.601562 0.453125,-2.34375 0.3125,-0.738281 0.734375,-1.382812 1.265625,-1.9375 0.539062,-0.550781 1.164062,-0.988281 1.875,-1.3125 0.71875,-0.320312 1.476562,-0.484375 2.28125,-0.484375 z m 0,10.515625 c 0.570312,0 1.101562,-0.113281 1.59375,-0.34375 0.5,-0.226562 0.929688,-0.539062 1.296875,-0.9375 0.363281,-0.40625 0.648437,-0.878906 0.859375,-1.421875 0.21875,-0.539063 0.328125,-1.117187 0.328125,-1.734375 0,-0.613281 -0.109375,-1.1875 -0.328125,-1.71875 C 9.976562,-8.1875 9.691406,-8.648438 9.328125,-9.046875 8.960938,-9.453125 8.53125,-9.769531 8.03125,-10 7.539062,-10.226562 7.007812,-10.34375 6.4375,-10.34375 c -0.574219,0 -1.109375,0.117188 -1.609375,0.34375 -0.492187,0.230469 -0.917969,0.546875 -1.28125,0.953125 -0.367187,0.398437 -0.65625,0.859375 -0.875,1.390625 -0.21875,0.53125 -0.328125,1.105469 -0.328125,1.71875 0,0.617188 0.109375,1.195312 0.328125,1.734375 0.21875,0.542969 0.507813,1.015625 0.875,1.421875 0.363281,0.398438 0.789063,0.710938 1.28125,0.9375 0.5,0.230469 1.035156,0.34375 1.609375,0.34375 z m 0,0"
           id="path468"
           style="fill:#b8adb6;fill-opacity:1" />
      </g>
    </g>
  </g>
</svg>
